<svg width="55" height="20" viewBox="0 0 55 20" fill="none" xmlns="http://www.w3.org/2000/svg">
<rect width="55" height="20" transform="translate(0 0.000518799)" fill="white"/>
<path d="M17.7649 17.5893C17.7716 17.5893 17.7782 17.5795 17.7782 17.5795C17.8313 17.5403 17.8844 17.4912 17.9309 17.4324C17.9243 17.4324 17.9176 17.4324 17.911 17.4226C17.8645 17.4716 17.8114 17.5304 17.7649 17.5893Z" fill="#000091"/>
<path d="M25.1222 15.1103L25.006 15.2104C25.0724 15.1937 25.1222 15.177 25.1222 15.1103Z" fill="#000091"/>
<path fill-rule="evenodd" clip-rule="evenodd" d="M22.7435 17.6426C22.9566 17.4283 23.1697 17.2009 23.3828 16.9671H23.3764C23.7767 16.5124 24.1642 16.0772 24.6291 15.6809C24.7712 15.551 24.9068 15.4406 25.0359 15.3497C25.0549 15.3306 25.0646 15.3022 25.0741 15.2743C25.084 15.2453 25.0937 15.2168 25.1134 15.2003C25.0214 15.2354 24.948 15.2909 24.8743 15.3468C24.7979 15.4046 24.7211 15.4627 24.6227 15.4991C24.5839 15.4991 24.5452 15.4601 24.5839 15.4211C24.7195 15.3237 24.8551 15.2197 24.9843 15.1158H24.9585C24.9197 15.1158 24.9197 15.0768 24.9197 15.0379C24.439 14.9615 24.0698 15.2903 23.7392 15.5846L23.7186 15.603C23.6671 15.6289 23.6185 15.6032 23.5803 15.583C23.561 15.5728 23.5444 15.564 23.5313 15.564C23.2389 15.6621 22.9867 15.8428 22.7329 16.0248C22.499 16.1924 22.2638 16.361 21.9944 16.4669V16.389C21.903 16.4205 21.8126 16.4616 21.7219 16.5028C21.5886 16.5635 21.4548 16.6243 21.3164 16.6553C21.0637 16.7139 20.8292 16.7064 20.602 16.699C20.5274 16.6966 20.4535 16.6943 20.38 16.6943C19.9665 16.7353 19.5581 16.8239 19.1503 16.9123L19.0175 16.9411C19.011 16.9443 19.0046 16.946 18.9981 16.9476C18.9917 16.9492 18.9852 16.9508 18.9788 16.9541C18.7334 17.019 18.5074 17.11 18.2813 17.2399L18.2555 17.2529C18.2466 17.2648 18.2378 17.2753 18.2295 17.2851C18.2197 17.2967 18.2108 17.3073 18.2038 17.3178C18.1264 17.4088 18.0553 17.4867 17.9455 17.5452C17.7834 17.6267 17.6433 17.7525 17.5054 17.8762C17.4457 17.9298 17.3861 17.9833 17.3256 18.0323C17.3127 18.0453 17.2869 18.0518 17.2675 18.0518C17.0673 18.2467 16.8671 18.4416 16.6605 18.6299C16.6476 18.6429 16.5895 18.6494 16.5443 18.6429C16.5443 18.6429 16.5507 18.6429 16.5507 18.6364L16.5701 18.5975L16.667 18.4416C16.6863 18.4123 16.7041 18.3831 16.7218 18.3539C16.7396 18.3247 16.7574 18.2954 16.7767 18.2662C16.8283 18.1883 16.8801 18.1102 16.9382 18.0388C16.9511 18.0194 16.9511 17.9999 16.9382 17.9869C16.9253 17.9739 16.9059 17.9674 16.8865 17.9674C17.0738 17.7855 17.2933 17.6296 17.5193 17.4932V17.4867C17.4935 17.4932 17.4548 17.4737 17.4741 17.4477C17.4931 17.4239 17.5086 17.3966 17.5231 17.3709L17.5387 17.3438C17.5419 17.3373 17.5436 17.3324 17.5452 17.3276C17.5468 17.3227 17.5484 17.3178 17.5516 17.3113C17.5484 17.3048 17.5436 17.3 17.5387 17.2951C17.5339 17.2902 17.529 17.2854 17.5258 17.2789L17.4866 17.3047C17.4398 17.3353 17.3917 17.3668 17.3515 17.4023C17.3229 17.4269 17.2963 17.4605 17.2691 17.495C17.2098 17.57 17.1472 17.6491 17.0544 17.6491C17.0479 17.6491 17.0157 17.6491 16.9963 17.6426C16.9769 17.6426 16.964 17.6361 16.9575 17.6296C16.9575 17.6264 16.9575 17.6247 16.9583 17.6239C16.9592 17.6231 16.9608 17.6231 16.964 17.6231C16.964 17.6231 16.9705 17.6166 16.9705 17.6101C16.9705 17.6101 16.9705 17.6036 16.9769 17.6036C16.9801 17.5971 16.9834 17.5923 16.9866 17.5874C16.9898 17.5825 16.9931 17.5776 16.9963 17.5712C16.9995 17.5647 17.0027 17.5598 17.006 17.5549C17.0092 17.55 17.0124 17.5452 17.0157 17.5387C17.0189 17.5354 17.0205 17.5306 17.0221 17.5257C17.0237 17.5208 17.0253 17.5159 17.0286 17.5127L17.0359 17.4993C17.0423 17.4879 17.0499 17.4743 17.0544 17.4607C17.0576 17.4542 17.0609 17.4494 17.0641 17.4445C17.0673 17.4396 17.0706 17.4347 17.0738 17.4283C17.0835 17.4153 17.0915 17.4006 17.0996 17.386C17.1077 17.3714 17.1158 17.3568 17.1254 17.3438C17.1319 17.3308 17.1384 17.3178 17.1513 17.3048C17.1577 17.2918 17.1642 17.2805 17.1706 17.2691C17.1771 17.2577 17.1836 17.2464 17.19 17.2334C17.2094 17.2009 17.19 17.1749 17.1642 17.1684C17.2352 17.0775 17.3192 16.9995 17.4225 16.9411H17.4096C17.4987 16.8962 17.5904 16.8437 17.6815 16.7916C17.7352 16.7608 17.7896 16.7296 17.8422 16.7007C17.8616 16.6813 17.881 16.6618 17.9068 16.6488C17.6937 16.7202 17.5 16.8177 17.3127 16.9476C17.3127 16.9476 17.261 16.9671 17.2481 16.9801C17.2481 16.9801 17.2094 16.9931 17.1577 16.9476C17.1513 16.9411 17.1513 16.9346 17.1513 16.9216C17.1737 16.8764 17.22 16.8465 17.27 16.8142C17.3064 16.7908 17.3447 16.766 17.3773 16.7332C17.416 16.7332 17.4483 16.7332 17.4483 16.7722C18.192 16.189 19.1091 16.0541 20.0292 15.9187C20.5951 15.8354 21.1622 15.752 21.6909 15.564C21.7458 15.525 21.8023 15.4877 21.8588 15.4503C21.9153 15.413 21.9718 15.3756 22.0267 15.3367C22.1209 15.2975 22.2053 15.2303 22.2947 15.1592C22.383 15.089 22.4762 15.0148 22.5885 14.9599C22.8856 14.7326 23.1116 14.4728 23.2278 14.0895C23.2278 14.0505 23.1891 14.0116 23.1891 14.0116C22.6983 14.5377 22.1365 14.9534 21.5359 15.2587C20.9633 15.5609 20.3497 15.6057 19.7423 15.65C19.5141 15.6667 19.2867 15.6833 19.0627 15.7134C19.1014 15.6355 19.1789 15.6355 19.25 15.6355C19.25 15.5432 19.2942 15.5035 19.3509 15.4526C19.366 15.439 19.3821 15.4246 19.3985 15.4081H19.5083C19.5276 15.4081 19.5373 15.3886 19.547 15.3691C19.5567 15.3497 19.5664 15.3302 19.5858 15.3302C19.6633 15.3302 19.773 15.2912 19.7343 15.2912C19.6751 15.2151 19.589 15.2452 19.494 15.2785C19.4027 15.3105 19.3031 15.3453 19.2112 15.2912C19.2454 15.2537 19.2556 15.2088 19.265 15.1678C19.2751 15.1236 19.2841 15.0841 19.321 15.0639H19.4695C19.4695 14.9859 19.547 14.9145 19.547 14.9145C19.8838 14.712 20.209 14.5352 20.5281 14.3616C20.7413 14.2458 20.952 14.1312 21.1614 14.0116C21.119 14.0116 21.0815 14.029 21.045 14.0459C20.987 14.0728 20.9318 14.0984 20.8644 14.0505C20.9031 14.0505 20.9031 14.0229 20.9031 13.9953C20.9031 13.9677 20.9031 13.9401 20.9419 13.9401C21.1841 13.8754 21.3997 13.7705 21.62 13.6633C21.7754 13.5877 21.9332 13.511 22.1042 13.4464C22.0534 13.4464 22.0065 13.4601 21.9607 13.4734C21.8725 13.4991 21.7887 13.5234 21.6909 13.4464C21.7166 13.4335 21.7373 13.4171 21.7577 13.4008C21.799 13.368 21.8392 13.336 21.9169 13.336V13.2256C21.9169 13.1866 21.9557 13.1866 21.9944 13.1866C21.9557 13.1866 21.9169 13.1476 21.9169 13.1476C21.9375 13.1064 21.9779 13.0979 22.0229 13.0884C22.0629 13.08 22.1065 13.0708 22.143 13.0372C22.1042 13.0372 22.0332 13.0372 22.0332 12.9982C22.143 12.8488 22.3302 12.8099 22.5175 12.7709C22.4981 12.7319 22.461 12.7319 22.4287 12.7319C22.3964 12.7319 22.369 12.7319 22.369 12.693C22.369 12.654 22.4077 12.654 22.4465 12.654H22.369C22.3082 12.6234 22.3189 12.5688 22.3264 12.531C22.3284 12.5207 22.3302 12.5116 22.3302 12.5046C22.4819 12.3258 22.5318 12.1149 22.5814 11.9051C22.6057 11.8024 22.6299 11.6999 22.666 11.6017C22.6273 11.6017 22.5885 11.6017 22.5885 11.5627C22.2254 11.9657 21.6499 12.1185 21.1032 12.2635L21.0516 12.2772H20.8644C20.6771 12.3552 20.4123 12.3552 20.2251 12.2383C20.136 12.1915 20.0725 12.1331 20.0039 12.07C19.9581 12.0279 19.91 11.9837 19.8505 11.9395C19.547 11.7511 19.25 11.6017 18.9142 11.4848C17.9778 11.186 17.0027 11.0301 16.0277 11.069C16.2999 10.9193 16.5891 10.8597 16.8821 10.7993C17.0338 10.7681 17.1865 10.7366 17.3385 10.6923C17.4344 10.6641 17.5294 10.6349 17.6239 10.6059C18.1595 10.4417 18.6791 10.2824 19.25 10.3156C19.1753 10.289 19.0796 10.2986 18.9915 10.3074C18.9502 10.3116 18.9105 10.3156 18.8754 10.3156C18.4438 10.2834 18.0078 10.3795 17.5528 10.4798C17.4564 10.501 17.3592 10.5225 17.261 10.5429C17.0829 10.58 16.9134 10.6332 16.7438 10.6866C16.5568 10.7454 16.3695 10.8042 16.1697 10.8417C16.0831 10.8716 16.0135 10.9225 15.9458 10.972C15.8368 11.0517 15.7324 11.1281 15.5692 11.108V10.9911C15.9437 10.5364 16.3957 10.0882 16.9963 10.0492C17.5768 9.9547 18.1242 10.022 18.6952 10.0923C18.7911 10.1041 18.8877 10.116 18.9852 10.1272C19.4533 10.1649 19.8912 10.2693 20.3632 10.3818L20.4123 10.3935C20.5157 10.3935 20.5738 10.4845 20.63 10.5726C20.6758 10.6441 20.7203 10.7138 20.7869 10.7313C20.8788 10.763 20.9707 10.7689 21.0627 10.7748C21.1968 10.7834 21.3308 10.792 21.4649 10.8807C21.4649 10.8544 21.4605 10.829 21.4562 10.8037C21.4476 10.7539 21.4392 10.705 21.4649 10.6533C21.5482 10.5695 21.6437 10.592 21.7378 10.6141C21.8114 10.6315 21.884 10.6486 21.9492 10.6144C22.154 10.4873 21.9619 10.2922 21.7697 10.0969C21.677 10.0027 21.5843 9.90852 21.5359 9.82189C21.5359 9.78292 21.5747 9.74394 21.5747 9.74394C21.6595 9.81997 21.7385 9.89865 21.8168 9.97665C22.0129 10.1719 22.2047 10.3628 22.4723 10.4974C22.6596 10.5754 23.1116 10.6858 23.0341 10.4585C22.9015 10.164 22.6749 9.90867 22.4461 9.65089C22.3519 9.54472 22.2573 9.43812 22.1688 9.32822V9.17882C22.1099 9.17882 22.0958 9.15634 22.0782 9.12845C22.0727 9.11962 22.0668 9.11025 22.059 9.10088V8.95148C21.9643 8.9018 21.9431 8.82309 21.9218 8.74394C21.9097 8.69892 21.8975 8.65375 21.8717 8.61371C21.807 8.5088 21.8024 8.37973 21.7976 8.24667C21.7937 8.1408 21.7898 8.03241 21.7555 7.93167C21.678 7.70432 21.6457 7.51595 21.607 7.2886C21.5649 7.05601 21.5187 6.83362 21.4734 6.6159C21.3934 6.23166 21.3165 5.86191 21.2712 5.47632C21.2114 4.92519 21.4897 4.45909 21.7742 3.98261C21.8586 3.84136 21.9435 3.69918 22.0203 3.55362C22.285 3.09893 22.5821 2.65073 23.0728 2.34544C23.1799 1.90196 23.4713 1.53264 23.7612 1.16514L23.7832 1.13725C24.0693 0.780619 24.5471 0.562598 24.8993 0.40192L24.9391 0.38376C25.4621 0.149918 25.9335 0.000518799 25.94 0.000518799H0V20.0005H18.404C18.8962 19.6437 19.3854 19.4186 19.9677 19.1506C20.2334 19.0283 20.5185 18.8971 20.8321 18.7404C20.8985 18.707 20.9774 18.6681 21.065 18.625C21.5906 18.3664 22.428 17.9544 22.7435 17.6426ZM16.9037 14.9443C16.8307 14.9516 16.7533 14.9594 16.7825 14.9007C16.8096 14.7693 16.9442 14.7299 17.0757 14.6914C17.132 14.6749 17.1877 14.6586 17.2341 14.6353L17.2553 14.6243L17.2709 14.6161C17.3437 14.5774 17.4328 14.5301 17.4986 14.5576C17.543 14.6207 17.598 14.637 17.6514 14.6528C17.6912 14.6646 17.7301 14.6761 17.7631 14.7065C17.6236 14.8466 17.4607 14.8604 17.2955 14.8744C17.1858 14.8837 17.0752 14.8931 16.9696 14.9396C16.9506 14.9396 16.9274 14.9419 16.9037 14.9443ZM11.1906 14.0309C11.1906 14.0698 11.2293 14.1088 11.2293 14.1088C12.1334 13.089 12.9535 12.2186 14.1159 11.4976C14.147 11.4845 14.1354 11.5008 14.12 11.5225C14.0971 11.5547 14.0657 11.5989 14.1546 11.5755C14.5394 11.4878 14.7123 11.1581 14.8804 10.8374C14.9239 10.7544 14.967 10.6721 15.0135 10.5947C15.1898 10.3079 15.4403 10.1241 15.6927 9.93892C15.8747 9.80538 16.0577 9.67111 16.2146 9.49693C16.2146 9.5359 16.2146 9.57488 16.1758 9.61385C16.2146 9.65282 16.2533 9.65282 16.2921 9.65282C16.3602 9.60143 16.4346 9.58016 16.5058 9.55977C16.5967 9.53377 16.6826 9.50921 16.7441 9.42548C16.447 9.30856 16.0661 9.26958 15.769 9.3865C14.9812 9.76325 14.3096 10.3673 13.6703 11.0494C13.2828 11.4586 12.8825 11.8418 12.3917 12.1082C12.0559 12.7837 11.6814 13.3878 11.1906 14.0309ZM14.3432 11.6151C14.3229 11.6557 14.3027 11.6768 14.2834 11.697C14.2658 11.7154 14.2489 11.7331 14.2335 11.764C14.1948 11.8417 14.1561 11.874 14.0851 11.9129C14.0464 11.9129 14.0077 11.9129 14.0077 11.874C14.0464 11.7251 14.1561 11.5762 14.3045 11.5374C14.3432 11.5438 14.3432 11.5827 14.3432 11.6151ZM15.9945 17.3836C16.0267 17.3511 16.0654 17.3121 16.0848 17.2732C16.1171 17.1952 15.9171 17.2147 15.8848 17.2342C15.8555 17.2578 15.8369 17.2813 15.8144 17.3098L15.8074 17.3186C15.7805 17.3496 15.749 17.3783 15.717 17.4074C15.6953 17.4271 15.6734 17.447 15.6526 17.468C15.5622 17.559 15.4719 17.6499 15.3751 17.7344C15.3106 17.7928 15.5171 17.8188 15.5622 17.7798C15.6138 17.7408 15.659 17.6954 15.7042 17.6499C15.7214 17.6499 15.7386 17.647 15.75 17.6451L15.7579 17.6438L15.7622 17.6434C15.8692 17.6075 15.9488 17.5331 16.0262 17.4606L16.0461 17.442C16.0719 17.4161 16.0396 17.3901 15.9945 17.3836ZM15.4106 16.9612C15.4099 16.9613 15.4094 16.9615 15.409 16.9619C15.4082 16.9627 15.4082 16.9643 15.4082 16.9675C15.3686 16.9947 15.3295 17.0224 15.2905 17.05C15.1895 17.1214 15.0891 17.1924 14.982 17.2533C14.8796 17.311 14.7746 17.3609 14.6686 17.4112C14.6075 17.4402 14.5462 17.4693 14.4848 17.5002C14.4848 17.5002 14.4848 17.4937 14.4783 17.4937C14.4654 17.4742 14.4396 17.4677 14.4138 17.4807C14.2717 17.5586 14.149 17.6626 14.0392 17.773C14.0199 17.786 14.0005 17.8055 13.9876 17.825L13.9294 17.8834V17.8899C13.9036 17.9159 13.8778 17.9419 13.8455 17.9809C13.8388 17.9876 13.8336 17.9944 13.8287 18.0008C13.8193 18.0131 13.8107 18.0243 13.7938 18.0328C13.768 18.0458 13.7034 18.0458 13.7099 18.0068V18.0003C13.6905 18.0133 13.6647 18.0263 13.6453 18.0328C13.6356 18.0393 13.6259 18.0442 13.6163 18.0491C13.6066 18.0539 13.5969 18.0588 13.5872 18.0653C13.5807 18.0588 13.5678 18.0588 13.5614 18.0588C13.5549 18.0588 13.542 18.0588 13.5355 18.0653C13.5205 18.0783 13.5054 18.0906 13.4903 18.1028C13.4602 18.1274 13.4301 18.1519 13.3999 18.1822C13.3224 18.2537 13.2514 18.3316 13.1804 18.4161C13.1804 18.4161 13.1804 18.4226 13.1739 18.4226C13.1739 18.4258 13.1723 18.4274 13.1707 18.4291C13.1691 18.4307 13.1675 18.4323 13.1675 18.4356L13.1545 18.4485C13.1521 18.451 13.1505 18.4535 13.1492 18.4556C13.1471 18.4591 13.1456 18.4615 13.1416 18.4615L13.1352 18.468C13.1287 18.481 13.1223 18.494 13.1093 18.507C13.1029 18.5135 13.09 18.52 13.077 18.52C13.0706 18.5135 13.0641 18.507 13.0641 18.5005C13.0609 18.4973 13.0593 18.494 13.0577 18.4908C13.0561 18.4875 13.0544 18.4843 13.0512 18.481C13.0448 18.4713 13.0399 18.4615 13.0351 18.4518C13.0302 18.442 13.0254 18.4323 13.0189 18.4226V18.4161C13.0189 18.4128 13.0173 18.4096 13.0157 18.4063C13.0141 18.4031 13.0125 18.3998 13.0125 18.3966L13.1287 18.2602L13.1352 18.2537C13.1416 18.2472 13.1481 18.2391 13.1545 18.231C13.161 18.2228 13.1675 18.2147 13.1739 18.2082C13.1836 18.1952 13.1949 18.1822 13.2062 18.1692C13.2175 18.1562 13.2288 18.1432 13.2385 18.1303C13.2417 18.1238 13.2449 18.1189 13.2482 18.114C13.2514 18.1091 13.2546 18.1043 13.2579 18.0978C13.2966 18.0458 13.3354 17.9938 13.3741 17.9354V17.9289C13.3806 17.9224 13.387 17.9159 13.387 17.9029C13.4064 17.8769 13.4258 17.8509 13.4387 17.825L13.4774 17.747V17.7405L13.4839 17.734C13.4839 17.7308 13.4855 17.7292 13.4871 17.7275C13.4887 17.7259 13.4903 17.7243 13.4903 17.721C13.4968 17.7048 13.5032 17.6902 13.5097 17.6756C13.5161 17.661 13.5226 17.6463 13.5291 17.6301V17.6236L13.5355 17.5976C13.5388 17.5911 13.5404 17.5846 13.542 17.5781C13.5436 17.5716 13.5452 17.5651 13.5485 17.5586V17.5521C13.5517 17.5424 13.5533 17.5327 13.5549 17.5229C13.5565 17.5132 13.5581 17.5034 13.5614 17.4937C13.5614 17.4872 13.5614 17.4742 13.5549 17.4677C13.5937 17.3963 13.6453 17.3313 13.7034 17.2663C13.7002 17.2663 13.697 17.268 13.6937 17.2696C13.6919 17.2705 13.69 17.2714 13.6882 17.2721C13.6868 17.2725 13.6854 17.2728 13.6841 17.2728C13.6553 17.2909 13.6306 17.315 13.6054 17.3395C13.5853 17.3591 13.5649 17.379 13.542 17.3963C13.5032 17.4287 13.4258 17.3768 13.4774 17.3378C13.5097 17.3118 13.5355 17.2858 13.5613 17.2599C13.5613 17.2599 13.5614 17.2533 13.5678 17.2533C13.5936 17.23 13.6183 17.2036 13.6432 17.177C13.6808 17.1369 13.7188 17.0962 13.7615 17.065C13.8068 17.0325 13.839 17.0065 13.8778 16.974C13.8842 16.9675 13.8907 16.961 13.8972 16.961C13.923 16.9286 13.9488 16.8961 13.9811 16.8636C13.9811 16.8636 13.9876 16.8636 13.9876 16.8571C14.2093 16.642 14.5209 16.5662 14.839 16.4887C15.0396 16.4399 15.2428 16.3904 15.4276 16.305C15.532 16.2615 15.6484 16.2786 15.7635 16.2955C15.8548 16.3089 15.9453 16.3222 16.0282 16.305C16.1379 16.305 16.2542 16.305 16.3639 16.3829C16.1086 16.5189 15.8649 16.6744 15.6238 16.8282C15.554 16.8728 15.4843 16.9173 15.4147 16.961C15.4129 16.961 15.4116 16.961 15.4106 16.9612ZM16.2176 14.3137C16.1874 14.3172 16.1678 14.3195 16.1846 14.3364C16.2943 14.4468 16.5204 14.4078 16.6753 14.3234C16.7851 14.2454 16.9014 14.2454 17.0499 14.2454C17.0886 14.2454 17.0886 14.174 17.0886 14.135C17.1984 14.174 17.2759 14.174 17.3857 14.174C18.2833 13.9856 19.1486 13.7972 19.9751 13.3815C19.1388 12.7352 18.1077 12.4473 17.0978 12.1654C16.9302 12.1186 16.7632 12.072 16.5978 12.0239C16.6342 12.0239 16.6706 12.036 16.7072 12.0482C16.781 12.0728 16.8559 12.0978 16.9336 12.0239C16.8312 11.9422 16.7171 11.9265 16.6041 11.9111C16.5106 11.8983 16.4179 11.8856 16.3331 11.8355C16.3419 11.8355 16.3525 11.8376 16.3639 11.8398C16.4026 11.8472 16.4517 11.8567 16.4816 11.7966C16.2855 11.6979 16.0893 11.6644 15.8913 11.6306C15.7894 11.6132 15.6871 11.5957 15.584 11.5692C15.7713 11.5303 15.8875 11.3809 15.8875 11.1925C15.8875 11.1535 15.81 11.1535 15.7713 11.1535C15.3257 11.3809 15.0222 11.7966 14.8349 12.2837C15.0038 12.3832 15.1857 12.3716 15.3641 12.3603C15.4654 12.3539 15.5656 12.3476 15.6615 12.3617C15.5768 12.4421 15.4545 12.464 15.3368 12.485C15.293 12.4928 15.2498 12.5005 15.2095 12.5111C15.0932 12.5371 14.9835 12.6215 15.0222 12.6995C15.048 12.7319 15.0739 12.7449 15.1062 12.7514C15.0222 12.7774 14.9447 12.8164 14.8737 12.8878C14.98 12.9715 15.0896 12.9554 15.1978 12.9394C15.2408 12.9331 15.2835 12.9268 15.3257 12.9268C15.3257 12.974 15.3567 12.99 15.3889 13.0067C15.4054 13.0152 15.4223 13.024 15.4355 13.0372C15.2482 13.1087 15.0997 13.2646 15.0609 13.375C15.0147 13.4875 14.9292 13.5606 14.8445 13.6331C14.7874 13.682 14.7306 13.7306 14.6864 13.7907V13.9076C14.5617 14.0182 14.4334 14.117 14.307 14.2144C14.0472 14.4145 13.7949 14.6089 13.5951 14.8885C13.6338 14.8885 13.6338 14.9275 13.6338 14.9664C13.5981 15.0203 13.5473 15.0577 13.4991 15.0931C13.4427 15.1345 13.3899 15.1732 13.3691 15.2328C13.3691 15.2717 13.3691 15.3107 13.4078 15.3107C13.6448 15.2324 13.8498 15.1005 14.0508 14.9712C14.2332 14.8539 14.4123 14.7387 14.6089 14.6676C14.7696 14.629 14.9095 14.5561 15.046 14.485C15.1618 14.4247 15.2752 14.3656 15.3967 14.3299C15.4904 14.3104 15.5937 14.2828 15.697 14.2552C15.8003 14.2276 15.9037 14.1999 15.9973 14.1805C15.9973 14.2194 15.9973 14.2584 16.036 14.2584H16.3331C16.3148 14.3026 16.2571 14.3092 16.2176 14.3137Z" fill="#000091"/>
<path d="M55 0.000518799H33.4884C33.4884 0.000518799 33.5274 0.00702075 33.69 0.0915461C33.8656 0.182573 34.0932 0.30611 34.2297 0.377632C34.5094 0.520675 34.776 0.702729 34.9516 0.982313C35.0296 1.09285 35.1401 1.32041 35.0686 1.46996C34.9906 1.65852 34.9516 1.96411 34.763 2.03563C34.5354 2.15266 34.2362 2.15266 33.9696 2.11365C33.8201 2.11365 33.6705 2.07464 33.5144 2.03563C34.0802 2.2632 34.6134 2.52978 34.9906 3.05644C35.0296 3.13446 35.1792 3.16697 35.3287 3.16697C35.3677 3.16697 35.3677 3.24499 35.3677 3.2775C35.2897 3.35553 35.2182 3.39454 35.2572 3.50507H35.3677C35.5563 3.42705 35.5173 3.04993 35.7839 3.16697C35.9725 3.2775 36.0505 3.54408 35.9335 3.73264C35.7839 3.88218 35.6344 3.99922 35.4783 4.10975C35.4393 4.18777 35.4393 4.29831 35.4783 4.37633C35.5888 4.52588 35.6279 4.67542 35.6669 4.83147C35.7839 5.09805 35.8164 5.39714 35.9335 5.66372C36.0831 6.22939 36.2326 6.79506 36.2001 7.36723C36.2001 7.66632 36.0505 7.9329 36.1611 8.23849C36.2391 8.53758 36.4277 8.76515 36.5773 9.03173C36.7268 9.2593 36.8764 9.40884 36.9935 9.63641C37.2211 10.0135 37.6373 10.3906 37.4487 10.8458C37.3381 11.1124 36.9219 11.0733 36.6553 11.2229C36.4277 11.4114 36.6163 11.717 36.7334 11.9056C36.9219 12.2437 36.5057 12.4713 36.2391 12.5883C36.3172 12.7053 36.4667 12.6663 36.5057 12.7378C36.5448 12.9264 36.7334 13.0369 36.6163 13.232C36.4667 13.4596 36.0115 13.5701 36.2391 13.9147C36.3887 14.1813 36.2912 14.4739 36.2001 14.7469C36.0896 15.085 35.7839 15.2346 35.5173 15.3126C35.2897 15.3906 35.0231 15.3906 34.802 15.3516C34.724 15.3126 34.6524 15.2736 34.5744 15.2736C33.9306 15.1956 33.2868 15.0135 32.6495 15.0135C32.461 15.0525 32.2724 15.085 32.1228 15.1631C31.9537 15.2866 31.7977 15.4231 31.6676 15.5662C31.6676 15.5662 31.6676 15.5662 31.6611 15.5727C31.6351 15.6052 31.6026 15.6312 31.5766 15.6637C31.5636 15.6832 31.544 15.7027 31.531 15.7222C31.518 15.7352 31.5115 15.7482 31.4985 15.7612C31.388 15.8978 31.2904 16.0473 31.1994 16.1969C31.1929 16.2099 31.1864 16.2164 31.1799 16.2229C31.1734 16.2424 31.1604 16.2554 31.1474 16.2749C31.0238 16.5025 30.9328 16.7365 30.8612 16.9706C30.6011 17.8354 30.7182 18.5766 30.9003 18.7586C30.9523 18.8107 32.1488 19.1813 32.9812 19.5519C33.3714 19.7274 33.6445 19.8575 33.8721 20.0005H54.9935V0.000518799H55Z" fill="#E1000F"/>
<path d="M34.7665 7.29515C34.9161 7.33411 35.1437 7.33411 35.1437 7.41203C35.0657 7.71073 34.6169 7.78865 34.3892 8.09385H34.2722C34.1616 8.17177 34.1941 8.36008 34.0835 8.36008C33.973 8.32112 33.8559 8.36008 33.7453 8.39904C33.8949 8.54839 34.0835 8.66527 34.3112 8.62631C34.3502 8.62631 34.4218 8.70423 34.4218 8.77566C34.4218 8.77566 34.4608 8.77566 34.4998 8.7367C34.5388 8.7367 34.5779 8.7367 34.5779 8.77566V8.92501C34.4673 9.07436 34.2722 9.00293 34.1226 9.0354C34.4283 9.11332 34.7275 9.11332 34.9941 9.0354C35.2218 8.95748 34.9941 8.58086 35.1437 8.39255C35.0657 8.39255 35.1437 8.27566 35.0657 8.27566C35.1437 8.19774 35.2153 8.08735 35.2933 8.04839C35.3714 8.04839 35.4819 8.00943 35.521 7.93151C35.521 7.85359 35.3714 7.82112 35.4039 7.7432C35.6315 7.59385 35.8202 7.36658 35.7421 7.13931C35.7031 7.02243 35.4039 7.02243 35.2153 6.951C35.0267 6.87957 34.799 6.951 34.5714 6.98996C34.3827 6.98996 34.1941 7.10684 34.0055 7.13931C33.7388 7.21723 33.5112 7.36658 33.29 7.51593C33.5567 7.40554 33.8169 7.36658 34.1226 7.28866C34.3502 7.29515 34.5388 7.2432 34.7665 7.29515" fill="#808080"/>
</svg>
