<svg width="52" height="37" viewBox="0 0 52 37" fill="none" xmlns="http://www.w3.org/2000/svg">
<path fill-rule="evenodd" clip-rule="evenodd" d="M51.96 27.7005L50.1 29.4004H49.62L50.72 27.4605H51.96V27.7005ZM50.62 34.2795H50.22C49.72 34.8794 49.16 35.3594 48.62 35.3594C48.06 35.3594 47.78 35.0194 47.78 34.2795C47.78 33.9795 47.82 33.6595 47.88 33.3795L51.14 32.2996C51.78 30.7797 51.02 30.1197 50.12 30.1197C48.58 30.1197 46.82 32.8196 46.82 34.9794C46.82 35.9994 47.3 36.5594 48.06 36.5594C48.94 36.5394 49.86 35.6794 50.62 34.2795ZM49.5012 31.0002C49.9412 31.0002 50.3213 31.3402 50.1212 32.1201L48.1012 32.6601C48.4212 31.7002 49.0212 31.0002 49.5012 31.0002ZM43.1421 31.0397H44.2221L42.5021 35.7594C42.3421 36.1594 42.5621 36.5594 42.9821 36.5594C44.2021 36.5594 45.6621 35.5195 46.2221 34.0395H45.9221C45.4821 34.6595 44.5221 35.3395 43.8021 35.4595L45.3821 31.0397H47.0021L47.2021 30.3597H45.6221L46.2221 28.6598H45.6021L44.4821 30.3597L43.1421 30.5397V31.0397ZM41.6409 30.1409C41.8609 30.1409 42.161 30.3809 42.021 30.8208L40.0809 35.5206C40.5809 35.4406 41.1009 34.9606 41.4009 34.5206H41.7209C41.2609 35.7006 40.2209 36.5605 39.3209 36.5605C39.1009 36.5605 38.7809 36.3205 38.9409 35.8805L40.7409 31.1808C40.2409 31.2608 39.7209 31.7408 39.4209 32.1808H39.1209C39.5809 30.9808 40.7009 30.1409 41.6409 30.1409ZM42.2023 28.9404C42.6023 28.9404 42.9423 28.6204 42.9423 28.2005C42.9423 27.8005 42.6023 27.4605 42.2023 27.4605C41.7823 27.4605 41.4623 27.8005 41.4623 28.2005C41.4623 28.6004 41.8023 28.9404 42.2023 28.9404ZM33.4619 32.8407C33.9019 31.8808 33.7419 31.4408 33.4619 31.4408C33.2219 31.4408 32.9418 31.7008 32.6618 32.1808H32.3618C32.8218 31.1608 33.4219 30.1409 34.0819 30.1409C34.6419 30.1409 34.8419 30.7008 34.8419 31.3208V32.2008C34.9319 32.0961 35.0195 31.9932 35.1051 31.8928L35.1067 31.8909L35.108 31.8894C35.9529 30.8979 36.5981 30.1409 37.3419 30.1409C37.9219 30.1409 38.2219 30.5009 38.2219 31.0408C38.2219 31.3608 38.1219 31.7608 37.9019 32.1808L36.2419 35.5206C36.7419 35.4406 37.2619 34.9606 37.5619 34.5206H37.8619C37.4019 35.7206 36.2819 36.5605 35.3419 36.5605C34.9219 36.5605 34.6819 36.1205 34.8619 35.7606L36.7819 32.0608C37.0019 31.6408 37.0419 31.3608 36.7019 31.3608C36.2419 31.3608 35.1619 32.1208 34.5819 32.8207L33.3219 36.1405C33.1819 36.4805 33.0419 36.5605 32.7218 36.5605C32.2018 36.5605 31.9418 36.2205 32.1818 35.6806L33.4619 32.8407ZM32.1604 31.5596C32.3804 30.7997 32.2604 30.1197 31.6803 30.1197C30.957 30.1197 30.7305 30.5974 30.0296 32.0758L29.9803 32.1796V31.2997C29.9803 30.6797 29.7803 30.1197 29.2203 30.1197C28.5603 30.1197 27.9603 31.1397 27.5003 32.1596H27.8003C28.1203 31.6996 28.4203 31.4196 28.6603 31.4196C28.9403 31.4196 29.1003 31.8596 28.6603 32.8196L27.3803 35.6594C27.1403 36.1994 27.4003 36.5394 27.9203 36.5394C28.2403 36.5394 28.3803 36.4594 28.5203 36.1194L29.7803 32.7996C30.1403 32.3596 30.4603 31.9796 30.8603 31.5596H32.1604ZM25.8407 32.1201C26.0407 31.3402 25.6607 31.0002 25.2207 31.0002C24.7407 31.0002 24.1407 31.7002 23.8207 32.6601L25.8407 32.1201ZM26.3395 34.2795H25.9395C25.4395 34.8794 24.8795 35.3594 24.3394 35.3594C23.7794 35.3594 23.4994 35.0194 23.4994 34.2795C23.4994 33.9795 23.5394 33.6595 23.5994 33.3795L26.8595 32.2996C27.4995 30.7797 26.7395 30.1197 25.8395 30.1197C24.2994 30.1197 22.5394 32.8196 22.5394 34.9794C22.5394 35.9994 23.0194 36.5594 23.7794 36.5594C24.6595 36.5394 25.5795 35.6794 26.3395 34.2795ZM19.9415 31.0397H18.8615V30.5397L20.2016 30.3597L21.3216 28.6598H21.9416L21.3416 30.3597H22.9216L22.7216 31.0397H21.1016L19.5215 35.4595C20.2416 35.3395 21.2016 34.6595 21.6416 34.0395H21.9416C21.3816 35.5195 19.9215 36.5594 18.7015 36.5594C18.2815 36.5594 18.0615 36.1594 18.2215 35.7594L19.9415 31.0397ZM13.1424 34.6999C13.1424 33.24 14.7625 31.2801 15.6625 31.2801C15.8625 31.2801 16.0625 31.3001 16.2225 31.3601L15.2825 33.88C14.7425 34.5399 13.9025 35.3399 13.5024 35.3399C13.2824 35.3399 13.1424 35.1399 13.1424 34.6999ZM17.603 29.8203L18.103 29.8603L16.363 33.86C15.943 34.82 16.123 35.2599 16.363 35.2599C16.603 35.2599 16.903 34.98 17.223 34.52H17.523C17.063 35.5399 16.463 36.5599 15.803 36.5599C15.243 36.5599 14.903 35.9599 15.003 34.88L15.043 34.5L14.9341 34.6521C14.2176 35.6536 13.5693 36.5599 12.9029 36.5599C12.3229 36.5599 12.0229 36.1999 12.0229 35.6599C12.0229 33.3401 14.563 30.3802 16.943 30.3802H17.043L17.603 29.8203ZM13.0217 31.5596C13.2417 30.7997 13.1217 30.1197 12.5417 30.1197C11.8183 30.1197 11.5918 30.5974 10.8909 32.0758L10.8417 32.1796V31.2997C10.8417 30.6797 10.6417 30.1197 10.0816 30.1197C9.42163 30.1197 8.82162 31.1397 8.36162 32.1596H8.66162C8.98163 31.6996 9.28163 31.4196 9.50164 31.4196C9.78164 31.4196 9.94164 31.8596 9.50164 32.8196L8.22161 35.6794C7.98161 36.2194 8.24161 36.5594 8.76162 36.5594C9.08163 36.5594 9.22163 36.4794 9.36163 36.1394L10.6217 32.8196C10.9817 32.3796 11.3017 31.9996 11.7017 31.5796H13.0217V31.5596ZM4.78008 35.9582L4.66008 36.3181H0L0.120002 35.9382C1.56003 35.6782 1.80003 35.5582 2.40004 33.9383L3.70006 30.4585C4.28007 28.8386 4.16007 28.7186 2.90005 28.4586L3.02005 28.0986H9.08015L8.72014 30.0385H8.28014C8.28014 28.8786 8.16014 28.5786 7.06012 28.5786H6.78011C5.70009 28.5786 5.56009 28.7386 5.26009 29.5785L4.40007 31.9184H5.66009C6.50011 31.9184 6.82011 31.3984 7.20012 30.7185H7.64013L6.60011 33.5583H6.1601C6.2601 32.6984 6.2601 32.3584 5.48009 32.3584H4.22007L3.64006 33.9583C3.01309 35.6236 3.19225 35.6575 4.68522 35.9402C4.71627 35.9461 4.74789 35.9521 4.78008 35.9582Z" fill="black"/>
<path fill-rule="evenodd" clip-rule="evenodd" d="M8.73971 12.4005L6.87971 13.7405V13.7605H6.39972L7.49971 12.1605H8.73971V12.4005ZM21.7415 21.7803L24.7214 13.8604L24.6214 13.7404L22.5615 13.9804V14.2204L22.9615 14.5204C23.3029 14.786 23.2125 15.0336 22.9292 15.8095L22.8815 15.9404L20.6015 22.0203C20.4215 22.3803 20.6615 22.8203 21.0815 22.8203C22.0215 22.8203 23.0215 21.9603 23.4815 20.7803H23.1815C22.8615 21.2203 22.2215 21.7003 21.7415 21.7803ZM35.4 15.6804L37.26 13.9804V13.7404H36.02L34.92 15.6804H35.4ZM35.5187 20.5403H35.9187C35.1787 21.9603 34.2587 22.8203 33.3787 22.8203C32.6187 22.8203 32.1387 22.2603 32.1387 21.2403C32.1387 19.0803 33.8987 16.3803 35.4387 16.3803C36.3187 16.3803 37.0987 17.0403 36.4587 18.5603L33.1787 19.6403C33.1187 19.9203 33.0787 20.2403 33.0787 20.5403C33.0787 21.2803 33.3587 21.6203 33.9187 21.6203C34.4587 21.6203 35.0187 21.1403 35.5187 20.5403ZM35.4177 18.3804C35.6177 17.6204 35.2377 17.2804 34.7977 17.2804C34.3377 17.2804 33.7377 17.9804 33.3977 18.9204L35.4177 18.3804ZM29.5377 17.3199H28.4577V16.8199L29.7977 16.6399L30.9177 14.9399H31.5377L30.9377 16.6399H32.5177L32.3177 17.3199H30.6977L29.1177 21.7399C29.8377 21.6199 30.7977 20.9399 31.2377 20.3199H31.5377C30.9777 21.7999 29.5177 22.8399 28.2977 22.8399C27.8777 22.8399 27.6577 22.4399 27.8177 22.0399L29.5377 17.3199ZM27.3376 17.0799C27.4576 16.6399 27.1776 16.3999 26.9376 16.3999C25.9976 16.3999 24.8776 17.2598 24.4176 18.4398H24.7176C25.0176 17.9998 25.5376 17.5198 26.0376 17.4398L24.2376 22.1398C24.0776 22.5798 24.3976 22.8198 24.6176 22.8198C25.5176 22.8198 26.5576 21.9598 27.0176 20.7798H26.7176C26.4176 21.2198 25.8976 21.6998 25.3976 21.7798L27.3376 17.0799ZM28.2591 14.4804C28.2591 14.8804 27.9191 15.2204 27.5191 15.2204C27.1191 15.2204 26.7791 14.8804 26.7791 14.4804C26.7791 14.0804 27.0991 13.7404 27.5191 13.7404C27.9191 13.7404 28.2591 14.0804 28.2591 14.4804ZM18.1612 17.5603C17.2612 17.5603 15.6412 19.5203 15.6412 20.9803C15.6412 21.4203 15.7812 21.6203 16.0212 21.6203C16.4012 21.6203 17.2412 20.8203 17.7812 20.1603L18.7212 17.6403C18.5412 17.5803 18.3612 17.5603 18.1612 17.5603ZM20.6017 16.1404L20.1017 16.1004L19.5417 16.6604H19.4417C17.0617 16.6604 14.5217 19.6204 14.5217 21.9403C14.5217 22.4803 14.8217 22.8403 15.4017 22.8403C16.0681 22.8403 16.7164 21.9341 17.4328 20.9325L17.5417 20.7803L17.5017 21.1603C17.4017 22.2403 17.7417 22.8403 18.3017 22.8403C18.9617 22.8403 19.5617 21.8203 20.0217 20.8003H19.7217C19.4017 21.2603 19.1017 21.5403 18.8617 21.5403C18.6217 21.5403 18.4417 21.1003 18.8617 20.1404L20.6017 16.1404ZM10.5206 22.6205C9.66062 22.9605 9.06062 23.3605 9.06062 23.9805C9.06062 24.5605 9.60062 24.8005 10.7206 24.8005C12.2206 24.8005 13.0406 24.3605 13.0406 23.7805C13.0406 23.5205 12.7006 23.4005 11.8006 23.1005C11.2206 22.9205 10.8006 22.7605 10.5206 22.6205ZM11.5193 20.1604C11.1193 20.1604 10.9793 19.8204 10.9793 19.4604C10.9793 18.3005 11.5393 16.8605 12.4393 16.8605C12.8393 16.8605 12.9793 17.2005 12.9793 17.5605C12.9593 18.7405 12.3993 20.1604 11.5193 20.1604ZM12.2813 22.0403C13.3813 22.3803 14.0613 22.6403 14.0613 23.4003C14.0613 24.3803 12.2613 25.5403 10.0813 25.5203C8.82132 25.5203 7.74133 25.1803 7.74133 24.3603C7.74133 23.5803 8.46132 22.9403 10.2213 22.4203C9.98132 22.2603 9.88132 22.0603 9.88132 21.7803C9.88132 21.3003 10.3213 20.9203 11.0813 20.5603C10.3413 20.4603 9.86132 19.9003 9.86132 19.0803C9.86132 17.8203 10.9013 16.3803 12.5413 16.3803C12.8813 16.3803 13.1813 16.4603 13.4213 16.6203H15.2213L15.0213 17.3003H13.9613C14.0213 17.4803 14.0613 17.6803 14.0613 17.9003C14.0613 19.1203 13.0813 20.5203 11.5213 20.6003C11.1213 20.8203 10.9213 21.1203 10.9213 21.3603C10.9213 21.6427 11.2485 21.7382 11.9715 21.9492C12.0677 21.9773 12.1709 22.0074 12.2813 22.0403ZM5.93998 18.6205C6.71998 18.6205 6.73998 18.9605 6.61998 19.8204H7.05997L8.09997 16.9805H7.65997C7.27997 17.6605 6.95997 18.1805 6.11998 18.1805H4.39998L5.23998 15.8405C5.53998 15.0005 5.67998 14.8405 6.75998 14.8405H7.51997C8.61997 14.8405 8.73997 15.1405 8.73997 16.3005H9.17997L9.53996 14.3605H3.01999L2.89999 14.7205C4.15998 14.9805 4.27998 15.1005 3.69999 16.7205L2.39999 20.2204C1.79999 21.8404 1.55999 21.9604 0.0999996 22.2204L0 22.6004H7.23997L8.53997 20.5404H8.03997C7.19997 21.3604 6.35998 22.1204 4.71998 22.1204C2.91611 22.1204 2.94824 22.0322 3.48949 20.5453C3.52432 20.4496 3.56129 20.3481 3.59999 20.2404L4.19998 18.6405H5.93998V18.6205Z" fill="black"/>
<path fill-rule="evenodd" clip-rule="evenodd" d="M11.9182 1.4804C12.3182 1.4804 12.6582 1.14043 12.6582 0.740462C12.6582 0.340493 12.3182 0.000518799 11.9182 0.000518799C11.4982 0.000518799 11.1782 0.340493 11.1782 0.740462C11.1782 1.16043 11.4982 1.4804 11.9182 1.4804ZM17.8403 3.99968C17.8403 3.03976 17.6003 2.67979 16.9203 2.67979C16.0803 2.67979 15.3003 3.57972 14.5203 4.65963L16.2003 0.159981L16.1003 0.0199921L14.0403 0.259974V0.499955L14.4403 0.799932C14.7886 1.07079 14.6876 1.34164 14.391 2.13758L14.3603 2.21982L12.5403 6.97945C12.3803 7.37942 12.2003 7.85939 12.2003 7.97938C12.2003 8.53933 12.9603 9.07929 13.6603 9.07929C15.2203 9.09929 17.8403 6.21951 17.8403 3.99968ZM35.18 1.95984L37.04 0.259974V0.0199921H35.8L34.7 1.95984H35.18ZM35.3005 6.8195H35.7005C34.9405 8.23939 34.0205 9.09932 33.1405 9.07932C32.3805 9.07932 31.9005 8.53936 31.9005 7.51944C31.9005 5.35961 33.6605 2.65982 35.2005 2.65982C36.0805 2.65982 36.8605 3.31977 36.2205 4.83965L32.9605 5.91957C32.9005 6.19954 32.8605 6.51952 32.8605 6.8195C32.8605 7.55944 33.1405 7.89941 33.7005 7.89941C34.2405 7.89941 34.8005 7.41945 35.3005 6.8195ZM35.1986 4.65973C35.3985 3.89979 35.0186 3.55981 34.5786 3.55981C34.0986 3.55981 33.4986 4.25976 33.1786 5.19969L35.1986 4.65973ZM29.2964 3.60094H28.2164V3.10098L29.5564 2.921L30.6764 1.22113H31.2964L30.6964 2.921H32.2764L32.0764 3.60094H30.4564L28.8764 8.0206C29.5964 7.90061 30.5564 7.22066 30.9964 6.60071H31.2964C30.7364 8.0806 29.2764 9.12052 28.0564 9.12052C27.6364 9.12052 27.4164 8.72055 27.5764 8.32058L29.2964 3.60094ZM27.6602 4.12086C27.8802 3.36092 27.7602 2.68098 27.1802 2.68098C26.4569 2.68098 26.2304 3.15867 25.5295 4.63703L25.4802 4.74082V3.86088C25.4802 3.24093 25.2802 2.68098 24.7202 2.68098C24.0603 2.68098 23.4603 3.7009 23.0003 4.72082H23.3003C23.6203 4.26085 23.9203 3.98088 24.1403 3.98088C24.4203 3.98088 24.5803 4.42084 24.1403 5.38077L22.8603 8.22055C22.6203 8.76051 22.8803 9.10048 23.4003 9.10048C23.7203 9.10048 23.8603 9.02049 24.0003 8.68051L25.2602 5.36077C25.6202 4.9208 25.9402 4.54083 26.3402 4.12086H27.6602ZM21.3208 4.65973C21.5208 3.89979 21.1408 3.55981 20.7008 3.55981C20.2208 3.55981 19.6408 4.25976 19.3008 5.19969L21.3208 4.65973ZM21.8195 6.8195H21.4195C20.9195 7.41945 20.3595 7.89941 19.8195 7.89941C19.2595 7.89941 18.9796 7.55944 18.9796 6.8195C18.9796 6.51952 19.0196 6.19954 19.0796 5.91957L22.3395 4.83965C22.9795 3.31977 22.2195 2.65982 21.3195 2.65982C19.7795 2.65982 18.0196 5.35961 18.0196 7.51944C18.0196 8.53936 18.4996 9.07932 19.2595 9.07932C20.1395 9.09932 21.0595 8.23939 21.8195 6.8195ZM13.4211 7.58014C13.4211 7.84012 13.8811 8.1401 14.2011 8.1401C15.5011 8.1401 16.7211 5.80028 16.7011 4.50038C16.7011 4.06041 16.4811 3.88043 16.1811 3.88043C15.7011 3.88043 14.8211 4.60037 14.2611 5.28032L13.7411 6.68021C13.5611 7.14018 13.4211 7.50015 13.4211 7.58014ZM11.3215 2.68098C11.5615 2.68098 11.8415 2.92096 11.7215 3.36092L9.80153 8.06056C10.3015 7.98057 10.8215 7.5006 11.1215 7.06064H11.4215C10.9615 8.24055 9.92153 9.10048 9.02154 9.10048C8.78154 9.10048 8.46155 8.8605 8.62155 8.42053L10.4215 3.7209C9.92153 3.80089 9.40154 4.28085 9.10154 4.72082H8.80154C9.26154 3.54091 10.3815 2.68098 11.3215 2.68098ZM3.01996 0.601058H7.3199L7.1999 0.981029C5.73992 1.24101 5.49992 1.361 4.89993 2.98087L3.61995 6.5006C2.99996 8.18047 3.15996 8.38046 4.25994 8.38046C5.61896 8.38046 6.51009 7.39275 7.2882 6.5303C7.34601 6.46623 7.40319 6.40285 7.45989 6.34061H7.95989L6.53991 8.86042H0L0.119998 8.50045C1.55998 8.24047 1.79997 8.12048 2.39997 6.5006L3.69995 2.96088C4.27994 1.341 4.15994 1.22101 2.89996 0.961031L3.01996 0.601058Z" fill="black"/>
</svg>
